<?xml version="1.0" standalone="no"?><!DOCTYPE svg PUBLIC "-//W3C//DTD SVG 1.1//EN" "http://www.w3.org/Graphics/SVG/1.1/DTD/svg11.dtd"><svg t="1575257287415" class="icon" viewBox="0 0 1024 1024" version="1.1" xmlns="http://www.w3.org/2000/svg" p-id="7036" xmlns:xlink="http://www.w3.org/1999/xlink" width="14" height="14"><defs><style type="text/css"></style></defs><path d="M872 1024H152c-13.254 0-24-10.746-24-24v-48c0-13.254 10.746-24 24-24h720c13.254 0 24 10.746 24 24v48c0 13.254-10.746 24-24 24zM511.158 0c-61.856 0-112 50.144-112 112s50.144 112 112 112 112-50.144 112-112-50.144-112-112-112z m409.136 309.268c-11.536-6.09-25.832-1.864-32.164 9.54-17.232 31.032-45.494 75.602-88.13 75.602-57.428 0-61.25-39.608-63.372-115.084-0.366-12.984-11.002-23.328-23.99-23.328h-82.012c-10.35 0-19.508 6.656-22.776 16.476-17.78 53.418-52.146 81.984-95.85 81.984s-78.068-28.566-95.85-81.984c-3.268-9.82-12.426-16.476-22.776-16.476h-82.01c-12.99 0-23.626 10.348-23.99 23.334-2.104 75.284-5.868 115.078-63.376 115.078-41.382 0-67.634-40.448-88.85-76.05-6.532-10.96-20.516-14.862-31.798-8.906l-78.358 41.358a24 24 0 0 0-11.02 30.29L224 896h576l210.028-514.896a24 24 0 0 0-11.02-30.29l-78.714-41.546z" p-id="7037" fill="#f21c1c"></path></svg>