<?xml version="1.0" standalone="no"?><!DOCTYPE svg PUBLIC "-//W3C//DTD SVG 1.1//EN" "http://www.w3.org/Graphics/SVG/1.1/DTD/svg11.dtd"><svg t="1575353364017" class="icon" viewBox="0 0 1024 1024" version="1.1" xmlns="http://www.w3.org/2000/svg" p-id="3165" xmlns:xlink="http://www.w3.org/1999/xlink" width="14" height="14"><defs><style type="text/css"></style></defs><path d="M322.662667 1013.914692c-259.743566-259.743566-259.357573-680.492384 0-939.849956 11.395805-11.395805 29.053504-13.263774 42.525274-4.843918l129.631787 81.024617a34.373413 34.373413 0 0 1 13.697766 41.915285l-64.814893 162.039234a34.375413 34.375413 0 0 1-35.337397 21.437634l-111.618095-11.15981c-42.101281 116.520011-41.223296 244.937819 0 359.023872l111.620095-11.16181a34.375413 34.375413 0 0 1 35.337397 21.437634l64.814893 162.041234a34.375413 34.375413 0 0 1-13.697766 41.915285l-129.631787 81.024616a34.379413 34.379413 0 0 1-42.527274-4.843917zM622.243553 190.942741c23.663596 40.093316 23.663596 90.014463 0 130.107779-7.899865 13.385772-26.215552 15.917728-37.435361 5.161911l-11.949796-11.451804c-7.821866-7.495872-9.585836-19.243672-4.521923-28.819508a64.124905 64.124905 0 0 0 0-59.888978c-5.065914-9.575837-3.299944-21.323636 4.521923-28.819508l11.949796-11.451804c11.219808-10.755816 29.535496-8.22386 37.435361 5.161912z m183.570866-182.370887c120.277947 143.205555 120.181948 351.757995 0 494.847552-8.947847 10.653818-25.059572 11.491804-35.1034 1.865969l-11.595802-11.113811c-9.119844-8.741851-9.95383-23.057606-1.859969-32.75744 99.372304-119.073967 99.290305-291.861018 0-410.836987-8.093862-9.699834-7.261876-24.01559 1.859969-32.757441l11.595802-11.11381c10.043829-9.625836 26.155554-8.78785 35.1034 1.865968z m-91.94243 89.880465c72.098769 92.642419 72.214767 222.294205 0 315.086622-8.77985 11.281807-25.393567 12.501787-35.71139 2.607955l-11.635802-11.157809c-8.79985-8.437856-9.995829-22.189621-2.569956-31.861456 53.071094-69.12682 53.067094-165.141181 0-234.264001-7.425873-9.671835-6.229894-23.4216 2.569956-31.861457l11.635802-11.157809c10.317824-9.893831 26.93154-8.673852 35.71139 2.607955z" fill="#F9B548" p-id="3166"></path></svg>